<svg width="247" height="77" viewBox="0 0 247 77" fill="none" xmlns="http://www.w3.org/2000/svg">
<path d="M11.4911 13.9237L13.6749 16.5415L5.42544 21.9319L3.2417 19.3141L11.4911 13.9237ZM2.60324 15.0798L6.40243 12.5973L16.1747 24.3122C16.4431 24.634 16.7059 24.8499 16.963 24.9599C17.2156 25.0645 17.4666 25.0901 17.7161 25.0367C17.9714 24.9794 18.2269 24.8672 18.4826 24.7001C18.6609 24.5836 18.8279 24.4534 18.9835 24.3096C19.1346 24.1603 19.2509 24.0464 19.3324 23.9679L22.0932 26.1708C21.9484 26.3496 21.7332 26.5872 21.4475 26.8834C21.1663 27.1851 20.7858 27.5053 20.306 27.8441C19.4177 28.4752 18.5218 28.8878 17.6183 29.0821C16.7207 29.2726 15.8565 29.2221 15.0255 28.9309C14.1946 28.6396 13.4387 28.0802 12.7576 27.2528L2.60324 15.0798Z" fill="#FFFDFD"/>
<path d="M36.6256 12.3927L34.4757 3.24561L38.939 2.42387L42.6831 18.3534L38.3979 19.1424L37.7178 16.2489L37.5502 16.2798C37.4063 17.28 36.9784 18.1414 36.2665 18.864C35.5616 19.5852 34.6049 20.0571 33.3965 20.2796C32.3209 20.4776 31.3176 20.4099 30.3866 20.0763C29.4556 19.7428 28.6548 19.1726 27.9842 18.3656C27.3205 17.5573 26.8389 16.5315 26.5395 15.2883L24.1555 5.14565L28.6189 4.3239L30.8175 13.6784C31.0455 14.6174 31.4752 15.3137 32.1064 15.7673C32.7377 16.2209 33.476 16.3699 34.3211 16.2143C34.859 16.1153 35.3334 15.9017 35.7446 15.5735C36.154 15.2385 36.4451 14.8026 36.6177 14.2659C36.7973 13.7279 36.8 13.1035 36.6256 12.3927Z" fill="#FFFDFD"/>
<path d="M57.0256 8.70978L56.6922 18.1641L52.1556 18.0388L52.7322 1.68535L57.0559 1.80477L56.9541 4.69005L57.1458 4.69535C57.5414 3.75423 58.175 3.01863 59.0464 2.48852C59.9181 1.95132 60.961 1.69949 62.175 1.73302C63.311 1.7644 64.2926 2.04018 65.1199 2.56036C65.9473 3.08055 66.5789 3.80847 67.015 4.74414C67.4513 5.6727 67.647 6.77224 67.6022 8.04276L67.2351 18.4553L62.6984 18.33L63.0371 8.72661C63.0794 7.72601 62.8514 6.93819 62.3529 6.36314C61.8547 5.781 61.1512 5.47738 60.2424 5.45228C59.6318 5.43541 59.0877 5.55182 58.6098 5.8015C58.1391 6.05137 57.7635 6.42466 57.483 6.92135C57.2099 7.41114 57.0574 8.00728 57.0256 8.70978Z" fill="#FFFDFD"/>
<path d="M80.3286 20.4794C78.6823 20.1285 77.3548 19.4975 76.346 18.5864C75.3461 17.67 74.6916 16.5371 74.3826 15.1879C74.0755 13.8319 74.1485 12.3212 74.6016 10.6559C75.0435 9.03171 75.7509 7.67437 76.7238 6.58387C77.6966 5.49338 78.8563 4.72911 80.2028 4.29105C81.5562 3.85447 83.0179 3.80349 84.5877 4.13809C85.6436 4.36314 86.5808 4.74054 87.3994 5.27029C88.2268 5.79467 88.8904 6.46179 89.3902 7.27163C89.897 8.08296 90.2044 9.03304 90.3123 10.1219C90.4221 11.2039 90.2942 12.4165 89.9288 13.7597L89.6015 14.9624L76.0876 12.082L76.826 9.36813L86.1618 11.358C86.3333 10.7275 86.3464 10.1394 86.2009 9.59358C86.0555 9.04779 85.7735 8.58527 85.3549 8.20603C84.9451 7.82141 84.4172 7.56026 83.7712 7.42257C83.0974 7.27895 82.4581 7.30582 81.8532 7.50317C81.2571 7.69514 80.7433 8.01703 80.3117 8.46883C79.8819 8.91377 79.5788 9.44732 79.4021 10.0695L78.7 12.6497C78.4875 13.4309 78.4496 14.137 78.5866 14.768C78.7305 15.4005 79.0314 15.9287 79.4893 16.3525C79.9472 16.7764 80.5478 17.0676 81.291 17.226C81.7842 17.3311 82.2544 17.3588 82.7015 17.3091C83.1486 17.2594 83.5553 17.1286 83.9217 16.9166C84.288 16.7047 84.6017 16.4163 84.8626 16.0514L88.8951 17.1936C88.422 18.1224 87.7635 18.8811 86.9199 19.4698C86.085 20.0532 85.1055 20.439 83.9813 20.6271C82.866 20.8099 81.6484 20.7607 80.3286 20.4794Z" fill="#FFFDFD"/>
<path d="M81.1302 44.6428L77.2111 43.1673C77.3224 42.83 77.3416 42.4901 77.2687 42.1477C77.1992 41.7991 77.0317 41.4725 76.7663 41.1678C76.5108 40.8598 76.1432 40.5985 75.6635 40.3838C75.0217 40.0965 74.4064 39.9837 73.8176 40.0454C73.2323 40.1009 72.8181 40.3414 72.575 40.7669C72.3812 41.106 72.3599 41.4566 72.5113 41.8186C72.6626 42.1806 73.0445 42.5878 73.6571 43.0401L76.0643 44.7681C77.3543 45.7017 78.1761 46.6426 78.5298 47.5908C78.8834 48.5389 78.7678 49.5248 78.1828 50.5485C77.6508 51.4796 76.8954 52.1675 75.9167 52.6123C74.9446 53.0599 73.8466 53.2576 72.6228 53.2054C71.4089 53.1499 70.1538 52.832 68.8573 52.2517C66.8801 51.3667 65.5286 50.27 64.8028 48.9617C64.087 47.6501 64.0163 46.271 64.5905 44.8244L68.781 46.4446C68.5765 47.0732 68.6245 47.6445 68.9251 48.1585C69.2292 48.6663 69.7507 49.0856 70.4897 49.4164C71.2157 49.7414 71.8749 49.87 72.4672 49.8021C73.0696 49.731 73.4956 49.4842 73.7452 49.0616C73.9431 48.701 73.9516 48.337 73.7709 47.9696C73.5936 47.596 73.2161 47.2024 72.6383 46.7889L70.3319 45.1409C69.032 44.2105 68.221 43.2435 67.8991 42.2399C67.5836 41.2391 67.7289 40.2084 68.335 39.1478C68.8565 38.2351 69.5651 37.565 70.4607 37.1373C71.3629 36.7125 72.3893 36.5331 73.5401 36.5991C74.6974 36.668 75.9146 36.9883 77.1917 37.5599C79.0781 38.4043 80.3459 39.448 80.995 40.6911C81.6506 41.937 81.6957 43.2543 81.1302 44.6428Z" fill="#FFFDFD"/>
<path d="M91.8686 61.2719C90.2271 60.9328 88.9229 60.3027 87.9559 59.3816C86.998 58.4552 86.3953 57.321 86.148 55.9788C85.9076 54.638 86.0383 53.1792 86.5402 51.6023C87.0486 50.0051 87.8109 48.6696 88.8273 47.5957C89.8527 46.5165 91.0609 45.7599 92.4518 45.3259C93.8448 44.8852 95.3516 44.8323 96.9722 45.1671C98.3703 45.4559 99.5158 45.9559 100.409 46.6669C101.302 47.3779 101.912 48.2433 102.24 49.2631C102.568 50.2829 102.571 51.4016 102.25 52.6192L98.0562 51.7527C98.1857 50.95 98.0719 50.2593 97.715 49.6807C97.3671 49.0967 96.7863 48.7207 95.9725 48.5525C95.284 48.4103 94.6242 48.4687 93.9931 48.7278C93.3712 48.9816 92.8078 49.4242 92.3029 50.0556C91.7981 50.687 91.3894 51.4934 91.0771 52.4747C90.7605 53.4696 90.6303 54.3443 90.6867 55.0988C90.75 55.8548 90.9808 56.4687 91.3792 56.9405C91.7776 57.4123 92.321 57.7193 93.0096 57.8616C93.5174 57.9665 94.0053 57.9591 94.4733 57.8394C94.9483 57.7211 95.3793 57.4964 95.7664 57.1652C96.1626 56.8288 96.4897 56.395 96.7476 55.8641L100.942 56.7306C100.493 57.9073 99.8253 58.8874 98.9385 59.6707C98.0608 60.4486 97.0195 60.9836 95.8147 61.2757C94.6098 61.5677 93.2944 61.5664 91.8686 61.2719Z" fill="#FFFDFD"/>
<path d="M108.969 63.6343L113.371 47.8738L117.711 48.5971L116.943 51.347L117.111 51.375C117.678 50.4458 118.379 49.7894 119.212 49.4056C120.046 49.015 120.916 48.895 121.82 49.0456C122.044 49.083 122.282 49.1369 122.533 49.2075C122.785 49.2781 123.002 49.3536 123.185 49.4342L122.101 53.3128C121.909 53.2162 121.633 53.113 121.275 53.0032C120.917 52.8935 120.584 52.8129 120.276 52.7615C119.617 52.6518 118.99 52.6939 118.393 52.888C117.805 53.0764 117.292 53.3917 116.853 53.8341C116.421 54.2775 116.116 54.8208 115.936 55.4638L113.446 64.3804L108.969 63.6343Z" fill="#FFFDFD"/>
<path d="M138.639 67.7749C136.997 67.979 135.567 67.8041 134.351 67.2501C133.141 66.6882 132.196 65.8156 131.514 64.6324C130.832 63.4421 130.47 62.0092 130.426 60.3337C130.382 58.6439 130.667 57.1268 131.283 55.7825C131.898 54.431 132.792 53.3298 133.965 52.4789C135.144 51.62 136.555 51.0885 138.198 50.8844C139.84 50.6803 141.266 50.8592 142.475 51.4211C143.692 51.9751 144.641 52.8472 145.323 54.0375C146.004 55.2207 146.367 56.6572 146.411 58.3469C146.455 60.0225 146.169 61.536 145.554 62.8875C144.938 64.2318 144.041 65.3335 142.861 66.1924C141.689 67.0433 140.281 67.5708 138.639 67.7749ZM138.568 64.2579C139.315 64.165 139.933 63.8745 140.423 63.3863C140.912 62.891 141.274 62.2549 141.508 61.4778C141.749 60.6999 141.857 59.8353 141.832 58.8839C141.808 57.9326 141.655 57.1003 141.375 56.3873C141.102 55.6733 140.709 55.1309 140.197 54.76C139.686 54.3891 139.056 54.2501 138.309 54.3429C137.555 54.4366 136.926 54.732 136.423 55.2291C135.927 55.7252 135.558 56.3623 135.317 57.1402C135.083 57.9172 134.978 58.7814 135.003 59.7328C135.028 60.6841 135.177 61.5168 135.45 62.2307C135.73 62.9438 136.13 63.4854 136.649 63.8554C137.174 64.2174 137.814 64.3516 138.568 64.2579Z" fill="#FFFDFD"/>
<path d="M161.812 47.3838L163.282 69.1524L158.759 69.526L157.289 47.7574L161.812 47.3838Z" fill="#FFFDFD"/>
<path d="M175.096 47.2259L177.061 68.9554L172.522 68.9722L170.557 47.2427L175.096 47.2259Z" fill="#FFFDFD"/>
<path d="M198.573 64.4475C196.914 64.7341 195.39 64.6537 194.002 64.2063C192.618 63.7509 191.427 62.9756 190.429 61.8807C189.43 60.7789 188.687 59.4 188.201 57.7439C187.727 56.1288 187.633 54.6557 187.919 53.3245C188.205 51.9934 188.832 50.8861 189.801 50.0026C190.777 49.1179 192.055 48.5389 193.637 48.2656C194.701 48.0817 195.74 48.0775 196.755 48.253C197.775 48.4205 198.724 48.7755 199.604 49.318C200.491 49.8593 201.274 50.5976 201.953 51.5329C202.63 52.4614 203.164 53.5935 203.556 54.9292L203.907 56.1252L190.291 58.4782L189.499 55.7795L198.905 54.154C198.721 53.527 198.419 52.9958 197.997 52.5603C197.575 52.1248 197.075 51.8137 196.498 51.627C195.927 51.4322 195.315 51.3911 194.664 51.5036C193.985 51.6209 193.429 51.8782 192.994 52.2756C192.564 52.665 192.277 53.1406 192.133 53.7025C191.987 54.2576 192.001 54.8459 192.176 55.4673L192.929 58.0331C193.157 58.81 193.501 59.4559 193.961 59.9707C194.428 60.4843 194.979 60.8473 195.615 61.0597C196.251 61.272 196.943 61.3134 197.692 61.184C198.189 61.0982 198.624 60.9514 198.997 60.7437C199.37 60.5361 199.663 60.2706 199.877 59.9472C200.091 59.6238 200.217 59.2511 200.255 58.8293L204.469 58.3803C204.543 59.3843 204.361 60.3037 203.922 61.1386C203.488 61.9654 202.819 62.6682 201.915 63.2468C201.017 63.8175 199.902 64.2177 198.573 64.4475Z" fill="#FFFDFD"/>
<path d="M214.999 57.7965L210.13 42.174L214.435 41.2674L215.285 43.9932L215.452 43.9581C215.441 42.927 215.703 42.0915 216.237 41.4517C216.769 40.805 217.483 40.3873 218.379 40.1986C218.602 40.1517 218.846 40.1148 219.111 40.0878C219.377 40.0608 219.614 40.0505 219.824 40.057L221.022 43.9016C220.794 43.8845 220.489 43.891 220.106 43.9211C219.723 43.9512 219.378 43.9984 219.073 44.0628C218.419 44.2003 217.879 44.4623 217.451 44.8486C217.028 45.2266 216.744 45.6912 216.597 46.2423C216.457 46.792 216.487 47.3855 216.685 48.0229L219.44 56.8615L214.999 57.7965Z" fill="#FFFDFD"/>
<path d="M243.167 34.995L239.293 36.5994C239.151 36.2753 238.94 36.0126 238.659 35.8113C238.376 35.603 238.035 35.478 237.637 35.4364C237.244 35.3855 236.799 35.4457 236.302 35.617C235.637 35.8462 235.108 36.1853 234.714 36.6344C234.319 37.0765 234.172 37.5372 234.275 38.0163C234.357 38.3982 234.575 38.6702 234.927 38.8322C235.279 38.9942 235.831 39.0312 236.584 38.9431L239.509 38.561C241.082 38.3618 242.313 38.4891 243.204 38.9427C244.095 39.3963 244.664 40.1994 244.912 41.3521C245.137 42.4006 245.036 43.4237 244.608 44.4214C244.187 45.4167 243.508 46.3148 242.569 47.1158C241.636 47.9074 240.498 48.5348 239.155 48.9978C237.107 49.704 235.381 49.8256 233.976 49.3628C232.576 48.8907 231.609 47.9267 231.072 46.4708L235.243 44.7866C235.509 45.3884 235.924 45.7749 236.487 45.9462C237.049 46.1104 237.713 46.0606 238.478 45.7967C239.23 45.5374 239.802 45.1798 240.195 44.7237C240.592 44.2585 240.743 43.7851 240.647 43.3037C240.554 42.9032 240.318 42.6301 239.941 42.4843C239.562 42.3316 239.022 42.3015 238.32 42.3942L235.523 42.7659C233.945 42.9743 232.704 42.8205 231.8 42.3044C230.902 41.786 230.325 40.9296 230.069 39.7352C229.848 38.7075 229.926 37.7296 230.304 36.8014C230.688 35.8709 231.327 35.0352 232.221 34.2945C233.122 33.5514 234.233 32.9518 235.556 32.4957C237.51 31.822 239.139 31.7189 240.444 32.1864C241.755 32.6515 242.663 33.5877 243.167 34.995Z" fill="#FFFDFD"/>
</svg>
