<svg width="440" height="174" viewBox="0 0 440 174" fill="none" xmlns="http://www.w3.org/2000/svg">
<path d="M380.496 140.357C364.162 49.4532 293.092 69.8118 251.428 86.1461C209.764 102.48 223.73 39.352 157.683 30.3564C91.636 21.3607 186.538 91.6689 221.337 132.149C256.136 172.63 -32.6723 68.8649 -23.9134 145.328C-15.1546 221.791 -74.0999 120.786 -41.4313 72.1791C-8.76275 23.5717 150.818 147.695 157.683 111.713C164.548 75.7301 144.9 59.6326 91.636 42.1147C38.3722 24.5968 104.42 -22.7488 185.381 15.6012C266.342 53.9511 267.525 80.7333 318.658 42.1147C369.792 3.49607 400.381 163.45 483.236 123.312C709.514 13.6959 396.83 231.26 380.496 140.357Z" fill="#090000" stroke="white"/>
</svg>
