<svg width="287" height="82" viewBox="0 0 287 82" fill="none" xmlns="http://www.w3.org/2000/svg">
<path d="M10.6191 16.6801L12.6439 19.4227L4.71605 25.2758L2.69121 22.5331L10.6191 16.6801ZM2.16249 18.0503L5.81359 15.3548L14.8747 27.628C15.1236 27.9651 15.3691 28.19 15.6112 28.3026C15.849 28.4095 16.0867 28.4326 16.3244 28.3719C16.5678 28.3069 16.8124 28.1838 17.0581 28.0024C17.2295 27.8758 17.3903 27.735 17.5407 27.5799C17.6868 27.419 17.7992 27.2963 17.878 27.2117L20.4581 29.5046C20.3174 29.6968 20.1088 29.9523 19.8322 30.2712C19.5599 30.5959 19.1929 30.9419 18.7313 31.3091C17.8767 31.9931 17.0189 32.4454 16.1578 32.6662C15.3025 32.8828 14.4831 32.8432 13.6998 32.5475C12.9165 32.2518 12.2092 31.6705 11.578 30.8035L2.16249 18.0503Z" fill="#FFFDFD"/>
<path d="M36.9003 16.5093L34.9867 7.30994L39.4299 6.38566L42.7625 22.4063L38.4966 23.2937L37.8913 20.3837L37.7244 20.4184C37.5581 21.4324 37.1135 22.3119 36.3908 23.0571C35.675 23.8009 34.7156 24.2979 33.5127 24.5481C32.4418 24.7709 31.449 24.7235 30.5342 24.406C29.6194 24.0885 28.8393 23.529 28.1937 22.7275C27.5552 21.9245 27.1022 20.8979 26.8349 19.6477L24.713 9.44708L29.1562 8.52279L31.1133 17.9308C31.3169 18.875 31.7262 19.5697 32.3411 20.0149C32.9561 20.46 33.6842 20.5951 34.5256 20.4201C35.061 20.3087 35.5363 20.0829 35.9516 19.7426C36.3654 19.3954 36.6642 18.9487 36.848 18.4027C37.0388 17.8552 37.0562 17.2241 36.9003 16.5093Z" fill="#FFFDFD"/>
<path d="M56.8902 11.7322L56.5951 21.1878L52.059 21.0463L52.5694 4.6906L56.8926 4.82551L56.8025 7.71118L56.9942 7.71717C57.3859 6.77722 58.0163 6.04369 58.8855 5.51657C59.7548 4.98234 60.7965 4.73417 62.0104 4.77206C63.1462 4.8075 64.1287 5.08687 64.958 5.61015C65.7872 6.13343 66.4217 6.8638 66.8614 7.80127C67.3014 8.73164 67.5015 9.83216 67.4618 11.1029L67.1369 21.5168L62.6007 21.3753L62.9004 11.7706C62.9388 10.7698 62.7076 9.981 62.2069 9.40402C61.7064 8.81994 61.0018 8.51373 60.0932 8.48537C59.4827 8.46632 58.9391 8.58081 58.4623 8.82884C57.9927 9.0771 57.6187 9.44914 57.3403 9.94496C57.0693 10.4339 56.9192 11.0297 56.8902 11.7322Z" fill="#FFFDFD"/>
<path d="M83.5768 23.8971C81.9404 23.503 80.6116 22.8323 79.5905 21.8851C78.578 20.9326 77.9013 19.7688 77.5603 18.3937C77.2211 17.0116 77.2535 15.4817 77.6576 13.8038C78.0517 12.1673 78.7152 10.8076 79.6481 9.72463C80.581 8.64164 81.7071 7.89375 83.0265 7.48097C84.3528 7.06985 85.7962 7.05219 87.3567 7.428C88.4063 7.68076 89.3426 8.08523 90.1656 8.6414C90.9973 9.19233 91.6708 9.88417 92.1861 10.7169C92.7084 11.5513 93.0372 12.5217 93.1725 13.6282C93.3095 14.7278 93.2151 15.9542 92.8891 17.3076L92.5973 18.5194L79.1639 15.2843L79.8224 12.5499L89.1025 14.7848C89.2555 14.1496 89.2529 13.5536 89.0948 12.9968C88.9367 12.4401 88.6458 11.9646 88.222 11.5703C87.8069 11.1708 87.2782 10.8937 86.6361 10.7391C85.9663 10.5778 85.335 10.5901 84.7424 10.7761C84.1582 10.9569 83.6588 11.2713 83.2441 11.7193C82.831 12.1604 82.5454 12.6943 82.3872 13.321L81.7611 15.9207C81.5715 16.7078 81.5527 17.4229 81.7047 18.0658C81.8636 18.7104 82.1749 19.253 82.6387 19.6934C83.1024 20.1338 83.7037 20.443 84.4425 20.6209C84.9328 20.739 85.3982 20.778 85.8389 20.738C86.2795 20.698 86.6781 20.5749 87.0346 20.3685C87.3911 20.1622 87.6936 19.877 87.9419 19.5131L91.9578 20.7652C91.5146 21.6958 90.8837 22.4497 90.0653 23.027C89.2554 23.599 88.2974 23.9673 87.1912 24.1319C86.0935 24.2913 84.8888 24.213 83.5768 23.8971Z" fill="#FFFDFD"/>
<path d="M139.676 32.7277L135.853 31.0807C135.95 30.7318 135.958 30.3776 135.877 30.0183C135.799 29.6527 135.627 29.3073 135.362 28.9821C135.106 28.6538 134.744 28.371 134.275 28.1338C133.648 27.8165 133.051 27.6819 132.485 27.7302C131.923 27.772 131.531 28.0116 131.31 28.449C131.134 28.7975 131.124 29.1628 131.281 29.5446C131.438 29.9265 131.819 30.3618 132.423 30.8506L134.797 32.7196C136.069 33.7291 136.89 34.7334 137.261 35.7325C137.631 36.7315 137.55 37.7571 137.018 38.8091C136.534 39.7662 135.827 40.4633 134.898 40.9005C133.975 41.3409 132.922 41.5172 131.741 41.4292C130.57 41.338 129.35 40.9719 128.082 40.3308C126.149 39.3532 124.813 38.1719 124.073 36.7868C123.342 35.3986 123.231 33.9576 123.74 32.4639L127.829 34.2694C127.651 34.9197 127.715 35.5171 128.021 36.0617C128.33 36.5999 128.845 37.0517 129.568 37.4171C130.278 37.7761 130.917 37.9283 131.486 37.8737C132.064 37.8161 132.467 37.5702 132.695 37.136C132.874 36.7652 132.871 36.3857 132.686 35.9973C132.503 35.6026 132.127 35.1816 131.558 34.7343L129.284 32.9515C128.002 31.9451 127.19 30.9139 126.849 29.8578C126.514 28.8049 126.622 27.7334 127.173 26.6433C127.648 25.7053 128.31 25.0255 129.16 24.6037C130.016 24.1852 131 24.0262 132.111 24.1266C133.229 24.2302 134.412 24.5977 135.66 25.2291C137.505 26.1619 138.759 27.2857 139.423 28.6005C140.094 29.9186 140.178 31.2943 139.676 32.7277Z" fill="#FFFDFD"/>
<path d="M149.225 51.4973C147.766 50.6734 146.685 49.6555 145.982 48.4435C145.29 47.2288 144.974 45.909 145.036 44.4842C145.105 43.0629 145.545 41.6317 146.359 40.1906C147.183 38.7309 148.187 37.6095 149.371 36.8262C150.565 36.0403 151.859 35.633 153.253 35.6045C154.651 35.5698 156.071 35.9592 157.512 36.7726C158.755 37.4743 159.716 38.3145 160.395 39.2932C161.074 40.2718 161.456 41.323 161.539 42.4466C161.623 43.5703 161.382 44.6983 160.816 45.8306L157.086 43.7255C157.383 42.9549 157.427 42.2257 157.22 41.5379C157.023 40.8474 156.562 40.2979 155.838 39.8894C155.226 39.5438 154.597 39.4088 153.951 39.4845C153.314 39.5574 152.691 39.8378 152.081 40.3255C151.472 40.8133 150.914 41.5055 150.407 42.4024C149.894 43.3116 149.582 44.1545 149.469 44.9312C149.363 45.7114 149.445 46.3977 149.714 46.99C149.983 47.5823 150.424 48.0513 151.036 48.3969C151.488 48.6518 151.945 48.7877 152.409 48.8046C152.878 48.825 153.33 48.7253 153.764 48.5054C154.208 48.2828 154.608 47.942 154.965 47.4829L158.695 49.588C158.019 50.6417 157.181 51.4328 156.181 51.9613C155.191 52.4872 154.101 52.7203 152.912 52.6605C151.722 52.6007 150.493 52.213 149.225 51.4973Z" fill="#FFFDFD"/>
<path d="M164.019 59.6409L172.389 45.5799L176.17 47.8304L174.71 50.2838L174.856 50.3709C175.632 49.6508 176.455 49.2478 177.324 49.162C178.197 49.07 179.027 49.2583 179.814 49.727C180.01 49.8432 180.213 49.9807 180.424 50.1396C180.635 50.2984 180.814 50.45 180.959 50.5945L178.899 54.0548C178.749 53.8909 178.525 53.6913 178.227 53.456C177.929 53.2208 177.646 53.0232 177.377 52.8634C176.803 52.5219 176.216 52.3419 175.616 52.3232C175.025 52.3022 174.467 52.4332 173.943 52.7164C173.426 53.0032 172.996 53.4335 172.654 54.0072L167.919 61.9622L164.019 59.6409Z" fill="#FFFDFD"/>
<path d="M187.653 73.7815C186.172 73.0423 185.049 72.0885 184.282 70.9201C183.526 69.7485 183.138 68.4512 183.118 67.0283C183.101 65.599 183.467 64.1345 184.216 62.6349C184.971 61.1226 185.923 59.9468 187.072 59.1076C188.225 58.262 189.495 57.7928 190.883 57.6999C192.28 57.6037 193.719 57.9253 195.2 58.6645C196.68 59.4036 197.799 60.359 198.556 61.5306C199.322 62.699 199.713 63.9979 199.73 65.4272C199.75 66.8501 199.382 68.3177 198.627 69.8301C197.879 71.3297 196.928 72.5023 195.776 73.3479C194.626 74.1871 193.353 74.6547 191.955 74.7508C190.567 74.8438 189.133 74.5206 187.653 73.7815ZM189.242 70.6456C189.916 70.9819 190.573 71.072 191.215 70.916C191.859 70.7536 192.463 70.3959 193.024 69.8429C193.593 69.2931 194.089 68.5924 194.514 67.741C194.94 66.8895 195.201 66.0714 195.299 65.2869C195.403 64.5054 195.327 63.8083 195.069 63.1954C194.811 62.5826 194.346 62.108 193.672 61.7717C192.992 61.4323 192.324 61.3406 191.666 61.4966C191.015 61.6558 190.406 62.0103 189.838 62.5601C189.276 63.1131 188.782 63.8154 188.357 64.6668C187.932 65.5183 187.667 66.3348 187.563 67.1162C187.465 67.9008 187.548 68.6011 187.812 69.2171C188.085 69.83 188.562 70.3061 189.242 70.6456Z" fill="#FFFDFD"/>
<path d="M209.738 59.2611L208.4 81.0382L203.87 80.76L205.208 58.9829L209.738 59.2611Z" fill="#FFFDFD"/>
<path d="M218.109 58.6331L226.476 78.7835L222.284 80.5237L213.918 60.3734L218.109 58.6331Z" fill="#FFFDFD"/>
<path d="M244.976 69.1899C243.594 70.1515 242.21 70.6994 240.824 70.8336C239.439 70.9579 238.12 70.6908 236.865 70.0323C235.607 69.368 234.485 68.3276 233.499 66.9111C232.537 65.5296 231.961 64.1304 231.771 62.7137C231.581 61.297 231.77 59.9584 232.338 58.6979C232.912 57.4333 233.857 56.3426 235.174 55.4256C236.06 54.8089 236.985 54.3776 237.947 54.1317C238.911 53.8759 239.876 53.832 240.841 53.9998C241.811 54.1635 242.755 54.5623 243.672 55.196C244.585 55.8239 245.439 56.7092 246.235 57.8517L246.947 58.8747L235.606 66.7683L233.999 64.46L241.834 59.0069C241.46 58.4706 241.013 58.0766 240.492 57.825C239.971 57.5735 239.422 57.4751 238.846 57.53C238.271 57.575 237.713 57.7862 237.171 58.1636C236.606 58.5571 236.196 59.0372 235.941 59.6038C235.688 60.1606 235.591 60.7427 235.651 61.3503C235.706 61.9521 235.916 62.5203 236.279 63.0548L237.807 65.2495C238.269 65.914 238.791 66.403 239.373 66.7164C239.96 67.0258 240.573 67.1534 241.21 67.0992C241.847 67.0451 242.478 66.8009 243.101 66.3668C243.515 66.0787 243.854 65.7567 244.116 65.4007C244.379 65.0447 244.552 64.665 244.634 64.2614C244.717 63.8578 244.705 63.4423 244.597 63.015L248.201 60.8444C248.602 61.7939 248.747 62.7662 248.635 63.7615C248.524 64.7468 248.163 65.7076 247.552 66.6439C246.942 67.5704 246.083 68.419 244.976 69.1899Z" fill="#FFFDFD"/>
<path d="M254.481 62.309L247.462 47.5271L251.437 45.6399L252.661 48.219L252.815 48.1459C252.649 47.1005 252.772 46.1929 253.185 45.4229C253.595 44.6466 254.214 44.0619 255.041 43.6689C255.247 43.5714 255.474 43.4792 255.724 43.3921C255.973 43.3051 256.198 43.2414 256.399 43.201L258.127 46.8387C257.907 46.8724 257.616 46.9475 257.255 47.064C256.893 47.1805 256.572 47.3058 256.289 47.4399C255.686 47.7262 255.21 48.1136 254.86 48.6021C254.513 49.0811 254.312 49.6171 254.255 50.21C254.205 50.7999 254.323 51.3964 254.61 51.9995L258.581 60.3624L254.481 62.309Z" fill="#FFFDFD"/>
<path d="M275.552 42.2736L271.681 43.8062C271.504 43.4906 271.259 43.2342 270.948 43.0369C270.635 42.8328 270.27 42.7093 269.852 42.6663C269.439 42.6143 268.983 42.6699 268.483 42.833C267.815 43.0513 267.298 43.3771 266.931 43.8106C266.562 44.2373 266.454 44.6836 266.606 45.1494C266.727 45.5207 266.978 45.7862 267.359 45.9458C267.74 46.1053 268.317 46.1448 269.09 46.0642L272.091 45.7122C273.704 45.529 274.995 45.6604 275.963 46.1066C276.93 46.5528 277.597 47.3363 277.963 48.457C278.296 49.4765 278.287 50.4692 277.938 51.435C277.595 52.3987 276.974 53.2663 276.075 54.0379C275.181 54.8005 274.059 55.4022 272.709 55.8431C270.65 56.5154 268.869 56.6223 267.367 56.1639C265.869 55.6965 264.774 54.7543 264.079 53.3373L268.25 51.729C268.583 52.315 269.05 52.693 269.651 52.8629C270.25 53.0261 270.934 52.982 271.704 52.7307C272.46 52.4838 273.02 52.1403 273.384 51.7001C273.753 51.2509 273.865 50.7923 273.72 50.3242C273.585 49.9348 273.315 49.6681 272.909 49.5241C272.502 49.3734 271.938 49.3407 271.219 49.4261L268.35 49.7689C266.731 49.9611 265.429 49.8037 264.441 49.2967C263.461 48.7876 262.781 47.9524 262.402 46.7911C262.075 45.7919 262.064 44.8429 262.369 43.9441C262.68 43.0432 263.264 42.236 264.122 41.5226C264.987 40.8069 266.084 40.232 267.414 39.7977C269.379 39.1563 271.06 39.0667 272.459 39.529C273.864 39.9891 274.895 40.904 275.552 42.2736Z" fill="#FFFDFD"/>
</svg>
