<svg width="440" height="173" viewBox="0 0 440 173" fill="none" xmlns="http://www.w3.org/2000/svg">
<path d="M371.883 139.598C355.549 48.6949 284.479 69.0535 242.814 85.3878C201.15 101.722 215.117 38.5937 149.07 29.5981C83.0227 20.6024 177.925 90.9106 212.724 131.391C247.523 171.872 -41.2856 68.1066 -32.5267 144.57C-23.7678 221.033 -82.7132 120.028 -50.0446 71.4208C-17.376 22.8134 142.205 146.937 149.07 110.954C155.935 74.9718 136.287 58.8743 83.0227 41.3564C29.7589 23.8385 95.8062 -23.5071 176.767 14.8429C257.728 53.1928 258.912 79.975 310.045 41.3564C361.178 2.73777 391.768 162.692 474.623 122.554C700.901 12.9376 388.217 230.502 371.883 139.598Z" fill="#A568FF"/>
</svg>
