<svg width="440" height="574" viewBox="0 0 440 574" fill="none" xmlns="http://www.w3.org/2000/svg">
<mask id="mask0_464_335" style="mask-type:luminance" maskUnits="userSpaceOnUse" x="-10" y="129" width="272" height="200">
<path d="M21.8398 129.627L261.741 181.017L230.183 328.343L-9.7189 276.954L21.8398 129.627Z" fill="white"/>
</mask>
<g mask="url(#mask0_464_335)">
<mask id="mask1_464_335" style="mask-type:luminance" maskUnits="userSpaceOnUse" x="-19" y="172" width="273" height="114">
<path d="M-18.997 235.819L242.452 172.326L253.609 221.72L-7.83992 285.213L-18.997 235.819Z" fill="white"/>
</mask>
<g mask="url(#mask1_464_335)">
<mask id="mask2_464_335" style="mask-type:luminance" maskUnits="userSpaceOnUse" x="-19" y="172" width="273" height="114">
<path d="M-18.997 235.819L242.452 172.326L253.609 221.72L-7.83992 285.213L-18.997 235.819Z" fill="white"/>
</mask>
<g mask="url(#mask2_464_335)">
<path d="M252.254 220.276C241.901 218.312 231.992 214.074 223.47 207.782C222.963 207.41 222.454 207.02 221.958 206.629C223.418 205.25 224.793 203.792 226.093 202.269C231.544 195.839 235.542 188.076 236.652 179.609C236.866 177.97 236.757 176.114 235.064 175.384C233.658 174.766 231.96 175.311 230.674 176.02C228.96 176.982 227.664 178.585 226.432 180.108C224.894 182.002 223.533 184.036 222.362 186.188C221.536 187.71 220.838 189.299 220.213 190.922C218.221 186.2 214.027 182.524 208.971 181.572C206.542 181.105 203.642 181.791 203.312 184.715C203.022 187.315 204.689 189.734 206.024 191.758C209.701 197.327 214.108 202.305 219.119 206.574C205.716 218.306 187.869 222.59 170.547 224.089C159.805 225.013 149.007 225.122 138.227 225.59C127.847 226.03 117.475 226.649 107.119 227.626C86.6175 229.58 66.1209 233.07 46.5731 239.966C27.8194 246.57 9.19556 256.48 -4.82021 271.104C-6.4891 272.85 -8.06024 274.67 -9.54868 276.567C-9.73839 276.812 -9.33844 277.144 -9.14873 276.9C-2.26713 268.668 6.09622 262.173 15.1805 256.645C24.4517 251.007 34.3234 246.445 44.4968 242.784C64.9509 235.437 86.5192 231.884 108.024 229.901C118.862 228.907 129.729 228.317 140.615 227.886C151.794 227.452 162.985 227.297 174.128 226.06C184.841 224.864 195.641 222.621 205.478 217.902C210.931 215.29 216.113 211.899 220.663 207.802C224.413 210.807 228.466 213.428 232.775 215.603C238.863 218.669 245.267 220.766 251.981 221.796C252.849 221.965 253.122 220.445 252.254 220.276ZM211.854 197.002C210.095 194.967 208.484 192.797 207.001 190.546C205.932 188.905 203.576 185.594 205.294 183.639C206.509 182.253 208.963 182.979 210.423 183.469C211.759 183.919 213.016 184.59 214.174 185.398C216.723 187.192 218.649 189.816 219.635 192.815C219.812 193.384 220.591 193.459 220.81 192.844C222.397 188.211 225.092 183.821 228.351 180.188C229.608 178.774 230.942 177.344 232.839 176.899C233.455 176.751 234.354 176.632 234.793 177.202C235.477 178.076 234.849 180.047 234.651 181.037C232.967 189.33 228.724 196.804 222.983 202.894C222.169 203.752 221.333 204.583 220.475 205.385C217.356 202.87 214.463 200.053 211.854 197.002Z" fill="#A568FF"/>
</g>
</g>
</g>
<mask id="mask3_464_335" style="mask-type:luminance" maskUnits="userSpaceOnUse" x="229" y="191" width="224" height="117">
<path d="M244.296 191.726L452.326 236.288L437.117 307.289L229.087 262.727L244.296 191.726Z" fill="white"/>
</mask>
<g mask="url(#mask3_464_335)">
<mask id="mask4_464_335" style="mask-type:luminance" maskUnits="userSpaceOnUse" x="235" y="166" width="221" height="157">
<path d="M264.873 166.208L455.837 263.954L426.696 322.352L235.735 224.607L264.873 166.208Z" fill="white"/>
</mask>
<g mask="url(#mask4_464_335)">
<mask id="mask5_464_335" style="mask-type:luminance" maskUnits="userSpaceOnUse" x="235" y="166" width="221" height="157">
<path d="M264.873 166.208L455.837 263.954L426.696 322.352L235.735 224.607L264.873 166.208Z" fill="white"/>
</mask>
<g mask="url(#mask5_464_335)">
<path fill-rule="evenodd" clip-rule="evenodd" d="M365.359 218.106C364.922 218.126 364.808 218.249 363.797 219.821C361.149 223.924 358.48 229.045 356.674 233.476C355.97 235.206 355.393 236.794 352.508 244.958C350.688 250.106 349.723 252.42 348.498 254.592C346.365 258.37 343.63 261.831 340.672 264.49C339.889 265.194 339.778 265.238 340.011 264.749C340.743 263.197 339.869 260.535 338.196 259.216C334.614 256.399 327.346 258.688 324.931 263.395L324.571 264.094L324.05 263.907C322.672 263.411 321.529 262.978 320.571 262.586C308.102 257.479 307.067 255.316 314.47 249.843C316.394 248.421 316.92 248.009 317.451 247.511C319.71 245.384 319.91 243.832 318.134 242.187C317.674 241.762 315.143 240.423 314.024 240.013C310.741 238.815 305.762 237.436 297.739 235.512C295.221 234.908 294.296 234.676 291.601 233.973C290.735 233.748 288.851 233.272 287.412 232.916C279.46 230.947 275.131 229.76 272.402 228.804C268.941 227.589 266.827 225.93 266.127 223.882L265.981 223.459L266.579 223.452C273.576 223.37 279.774 221.478 282.998 218.441C285.538 216.045 286.012 213.017 284.099 211.379C279.848 207.739 268.454 212.753 265.207 219.691C264.713 220.746 264.671 220.875 264.491 221.851C264.465 221.993 263.637 221.978 261.201 221.792C254.969 221.32 247.201 219.678 240.309 217.38L239.648 217.161L239.319 217.823C239.079 218.301 239.007 218.496 239.054 218.52C239.207 218.599 241.935 219.471 243.111 219.817C250.225 221.916 257.496 223.196 263.572 223.422L264.516 223.457L264.565 223.758C264.783 225.052 265.921 226.756 267.282 227.818C269.768 229.762 273.76 231.086 286.91 234.329C288.217 234.65 290.458 235.219 291.889 235.591C293.319 235.963 295.548 236.52 296.841 236.831C299.964 237.579 303.762 238.538 307.106 239.419C309.342 240.007 311.775 240.765 313.792 241.504C315.941 242.29 317.75 243.541 317.878 244.332C317.985 244.983 316.773 246.331 314.744 247.814C313.17 248.963 311.544 250.229 310.945 250.773C307.832 253.599 307.561 256.49 310.187 258.818C312.089 260.504 318.157 263.423 323.993 265.456L324.255 265.549L324.254 266.061C324.25 269.901 328.905 272.078 333.791 270.521C338.578 268.994 344.365 263.862 348.416 257.55C350.57 254.19 352.109 250.654 354.688 243.133C355.069 242.018 356.967 236.729 357.379 235.621C358.346 233.044 359.887 229.608 361.067 227.402L361.829 225.977L361.728 226.901C361.321 230.604 361.521 233.219 362.63 238.731C363.644 243.763 363.939 245.613 364.026 247.539C364.138 249.914 363.759 252.379 363.079 253.717L362.863 254.142L362.892 253.805C362.943 253.238 362.96 251.432 362.927 250.605C362.845 248.688 362.49 245.539 361.927 241.8C361.096 236.275 361.083 236.091 361.317 233.62C361.496 231.7 361.497 231.572 361.309 231.292C361.09 230.965 360.47 230.864 360.334 231.132C360.308 231.187 360.261 231.218 360.232 231.202C359.993 231.081 359.732 232.661 359.695 234.461C359.598 239.232 359.651 240.089 360.372 245.146C361.464 252.827 361.222 254.961 358.893 258.206C358.512 258.739 358.306 259.122 358.383 259.163C358.413 259.177 358.419 259.229 358.395 259.274C358.308 259.444 358.461 259.716 358.741 259.89C359.098 260.114 359.456 260.021 360.07 259.556L360.497 259.229L360.426 259.472C359.988 260.976 359.844 261.328 358.618 263.9C355.729 269.961 355.363 272.454 357.066 274.516C358.58 276.346 361.09 276.553 370.055 275.584C373.564 275.207 375.501 275.061 378.713 274.942C382.376 274.806 387.083 275.023 390.329 275.477C401.403 277.025 407.217 281.219 407.795 288.078C407.849 288.711 407.875 288.677 407.239 288.718C400.8 289.115 395.922 293.064 397.149 296.885C398.203 300.164 403.174 300.223 406.262 296.993C407.665 295.529 408.787 293.151 409.127 290.923C409.193 290.495 409.257 290.141 409.267 290.138C409.277 290.136 409.468 290.14 409.688 290.149C415.796 290.369 424.172 292.968 433.49 297.534C435.242 298.393 436.935 299.21 437.251 299.35L437.827 299.602L438.433 298.387L437.139 297.728C435.024 296.649 430.74 294.576 429.773 294.161C421.686 290.693 414.881 288.82 409.82 288.671C409.529 288.662 409.288 288.646 409.286 288.634C409.284 288.621 409.269 288.35 409.249 288.034C408.573 276.567 394.101 271.506 369.539 274.147C360.987 275.066 358.781 274.854 357.836 273.022C357.067 271.528 357.645 269.24 360.092 264.095C361.482 261.173 361.746 260.451 362.25 258.174L362.442 257.299L362.85 256.767C365.503 253.301 366.087 249.59 364.985 243.26C364.742 241.876 364.684 241.573 363.813 237.229C362.6 231.177 362.744 226.637 364.277 222.496C364.787 221.121 365.084 220.486 365.437 220.008C366.241 218.931 366.206 218.067 365.359 218.106ZM283.344 212.714C284.167 213.625 283.922 215.146 282.718 216.587C280.186 219.613 274.948 221.529 268.19 221.902C265.797 222.032 265.914 222.06 266.072 221.412C267.567 215.273 279.999 209.012 283.344 212.714ZM407.658 290.84C406.966 294.944 404.195 297.887 401.026 297.885C399.203 297.886 398.203 296.872 398.466 295.289C398.846 293.021 401.935 290.968 405.896 290.359C406.583 290.255 407.656 290.141 407.736 290.168C407.756 290.175 407.719 290.476 407.658 290.84ZM337.072 260.23C339.682 262.128 339.197 265.443 336.085 267.005C333.783 268.16 330.161 268.126 328.996 266.941L328.748 266.688L329.012 266.703C329.16 266.711 329.614 266.723 330.024 266.731C330.435 266.737 330.866 266.769 330.982 266.801C332.14 267.11 334.404 266.964 335.693 266.493C339.832 264.984 336.564 259.684 332.018 260.53C330.07 260.891 328.318 262.206 327.443 263.957C327.038 264.765 327.01 264.809 326.896 264.78C326.375 264.647 326.212 264.6 326.099 264.542L325.968 264.477L326.282 263.921C328.351 260.26 334.316 258.221 337.072 260.23ZM336.036 263.806C336.236 264.434 336.057 264.772 335.371 265.056L335.069 265.182L335.22 264.977C335.512 264.583 335.79 263.93 335.795 263.631C335.799 263.257 335.881 263.316 336.036 263.806ZM334.183 263.295C334.807 263.876 333.269 264.922 331.448 265.158C330.586 265.268 329.638 264.775 329.75 264.272C329.981 263.251 332.384 262.598 333.979 263.123C333.994 263.129 334.086 263.207 334.183 263.295ZM327.164 266.764C327.736 268.339 329.392 269.25 331.815 269.322C332.608 269.347 332.597 269.364 331.711 269.476C328.55 269.875 325.929 268.52 325.722 266.38C325.699 266.175 325.696 266.005 325.712 266.004C325.734 266.001 326.284 266.143 326.98 266.333C326.998 266.337 327.081 266.531 327.164 266.764Z" fill="#A568FF"/>
</g>
</g>
</g>
</svg>
