<svg width="393" height="174" viewBox="0 0 393 174" fill="none" xmlns="http://www.w3.org/2000/svg">
<path d="M359.883 140.355C343.549 49.4511 272.479 69.8097 230.814 86.144C189.15 102.478 203.117 39.35 137.07 30.3543C71.0227 21.3586 165.925 91.6668 200.724 132.147C235.523 172.628 -53.2856 68.8628 -44.5267 145.326C-35.7678 221.789 -94.7132 120.784 -62.0446 72.177C-29.376 23.5696 130.205 147.693 137.07 111.711C143.935 75.728 124.287 59.6305 71.0227 42.1126C17.7589 24.5948 83.8062 -22.7509 164.767 15.5991C245.728 53.949 246.912 80.7312 298.045 42.1126C349.178 3.49399 379.768 163.448 462.623 123.31C688.901 13.6939 376.217 231.258 359.883 140.355Z" fill="#090000" stroke="white"/>
</svg>
