<svg width="393" height="164" viewBox="0 0 393 164" fill="none" xmlns="http://www.w3.org/2000/svg">
<path d="M317.223 171.745C300.876 59.7128 229.75 84.8034 188.053 104.934C146.356 125.065 160.334 47.2638 94.2346 36.1772C28.1354 25.0906 123.112 111.741 157.939 161.63C192.765 211.52 -96.2708 83.6364 -87.5051 177.872C-78.7393 272.108 -137.731 147.626 -105.037 87.7209C-72.3424 27.8156 87.3641 180.79 94.2346 136.444C101.105 92.0973 81.4412 72.2582 28.1354 50.6686C-25.1704 29.079 40.929 -29.2714 121.954 17.9924C202.979 65.2562 204.163 98.2634 255.337 50.6686C306.51 3.07368 337.124 200.206 420.044 150.739C646.5 15.6444 333.57 283.778 317.223 171.745Z" fill="#A568FF"/>
</svg>
